<svg xmlns="http://www.w3.org/2000/svg" viewBox="0 0 800 340" preserveAspectRatio="xMidYMid slice">
  <defs>
    <linearGradient id="lsky" x1="0" y1="0" x2="0" y2="1">
      <stop offset="0" stop-color="#0a1026"/><stop offset="0.42" stop-color="#36223f"/><stop offset="0.68" stop-color="#7a4a2f"/><stop offset="0.87" stop-color="#c87a36"/><stop offset="1" stop-color="#f0ab4f"/>
    </linearGradient>
    <radialGradient id="lsun" cx="66%" cy="84%" r="46%">
      <stop offset="0" stop-color="#ffe6a8" stop-opacity="0.95"/><stop offset="0.5" stop-color="#ffb55e" stop-opacity="0.45"/><stop offset="1" stop-color="#ffb55e" stop-opacity="0"/>
    </radialGradient>
    <linearGradient id="lbld" x1="0" y1="0" x2="0" y2="1">
      <stop offset="0" stop-color="#F0D58E"/><stop offset="0.5" stop-color="#b78a3a"/><stop offset="1" stop-color="#2e2110"/>
    </linearGradient>
    <linearGradient id="lbk" x1="0" y1="0" x2="0" y2="1"><stop offset="0" stop-color="#5a4a6a"/><stop offset="1" stop-color="#241b34"/></linearGradient>
  </defs>
  <rect width="800" height="340" fill="url(#lsky)"/>
  <ellipse cx="540" cy="300" rx="430" ry="220" fill="url(#lsun)"/>
  <g fill="#fff" opacity="0.55"><circle cx="80" cy="40" r="1.3"/><circle cx="170" cy="70" r="1"/><circle cx="300" cy="34" r="1.3"/><circle cx="470" cy="48" r="1"/><circle cx="640" cy="30" r="1.3"/><circle cx="730" cy="60" r="1"/></g>
  <!-- back skyline -->
  <g fill="url(#lbk)" opacity="0.85">
    <rect x="0" y="215" width="800" height="125"/>
    <rect x="36" y="180" width="42" height="160"/><rect x="118" y="196" width="30" height="144"/><rect x="676" y="184" width="48" height="156"/><rect x="742" y="200" width="50" height="140"/>
  </g>
  <!-- front landmarks -->
  <g fill="url(#lbld)">
    <rect x="248" y="150" width="32" height="190"/><polygon points="248,150 264,110 280,150"/>
    <polygon points="404,66 432,340 376,340"/>
    <path d="M470 340 Q467 212 494 184 Q521 212 518 340 Z"/>
    <rect x="566" y="198" width="48" height="142"/><polygon points="566,198 590,168 614,198"/>
    <rect x="640" y="225" width="34" height="115"/>
  </g>
  <!-- London Eye -->
  <g stroke="#F0D58E" stroke-width="2.5" fill="none" opacity="0.92"><circle cx="150" cy="240" r="48"/></g>
  <circle cx="150" cy="240" r="5" fill="#F0D58E"/>
  <rect x="255" y="170" width="18" height="18" fill="#1a1206"/>
  <!-- lit windows -->
  <g fill="#ffe9b8" opacity="0.9">
    <rect x="410" y="150" width="3" height="8"/><rect x="410" y="190" width="3" height="8"/><rect x="410" y="240" width="3" height="8"/><rect x="410" y="290" width="3" height="8"/>
    <rect x="580" y="220" width="4" height="7"/><rect x="596" y="250" width="4" height="7"/><rect x="580" y="285" width="4" height="7"/>
    <rect x="50" y="210" width="4" height="7"/><rect x="64" y="245" width="4" height="7"/><rect x="700" y="215" width="4" height="7"/><rect x="758" y="240" width="4" height="7"/>
    <rect x="488" y="240" width="3" height="7"/><rect x="488" y="285" width="3" height="7"/>
  </g>
</svg>
