<svg xmlns="http://www.w3.org/2000/svg" viewBox="0 0 800 340" preserveAspectRatio="xMidYMid slice">
  <defs>
    <linearGradient id="dsky" x1="0" y1="0" x2="0" y2="1">
      <stop offset="0" stop-color="#0a1226"/><stop offset="0.4" stop-color="#3a2742"/><stop offset="0.66" stop-color="#8a5530"/><stop offset="0.85" stop-color="#d68a3c"/><stop offset="1" stop-color="#f6bf63"/>
    </linearGradient>
    <radialGradient id="dsun" cx="50%" cy="86%" r="48%">
      <stop offset="0" stop-color="#ffeab0" stop-opacity="0.98"/><stop offset="0.5" stop-color="#ffbe66" stop-opacity="0.5"/><stop offset="1" stop-color="#ffbe66" stop-opacity="0"/>
    </radialGradient>
    <linearGradient id="dbld" x1="0" y1="0" x2="0" y2="1">
      <stop offset="0" stop-color="#F4D896"/><stop offset="0.5" stop-color="#bd9040"/><stop offset="1" stop-color="#2e2110"/>
    </linearGradient>
    <linearGradient id="dbk" x1="0" y1="0" x2="0" y2="1"><stop offset="0" stop-color="#624f72"/><stop offset="1" stop-color="#241b34"/></linearGradient>
  </defs>
  <rect width="800" height="340" fill="url(#dsky)"/>
  <ellipse cx="400" cy="305" rx="470" ry="230" fill="url(#dsun)"/>
  <g fill="#fff" opacity="0.55"><circle cx="90" cy="44" r="1.3"/><circle cx="220" cy="30" r="1"/><circle cx="560" cy="40" r="1.2"/><circle cx="690" cy="64" r="1"/><circle cx="740" cy="34" r="1.3"/></g>
  <!-- back skyline -->
  <g fill="url(#dbk)" opacity="0.85">
    <rect x="0" y="225" width="800" height="115"/>
    <rect x="60" y="195" width="36" height="145"/><rect x="120" y="210" width="28" height="130"/><rect x="690" y="200" width="40" height="140"/><rect x="744" y="215" width="48" height="125"/>
  </g>
  <!-- front: Burj Al Arab (sail) + clusters + Burj Khalifa -->
  <g fill="url(#dbld)">
    <path d="M96 340 L96 150 Q150 205 150 340 Z"/>
    <rect x="200" y="215" width="30" height="125"/><rect x="238" y="190" width="34" height="150"/><polygon points="238,190 255,166 272,190"/>
    <polygon points="408,40 398,340 442,340 432,40"/><rect x="416" y="22" width="8" height="20"/>
    <rect x="388" y="130" width="22" height="210"/><rect x="430" y="160" width="20" height="180"/>
    <rect x="520" y="205" width="38" height="135"/><polygon points="520,205 539,178 558,205"/>
    <rect x="576" y="225" width="30" height="115"/><rect x="616" y="200" width="42" height="140"/>
  </g>
  <!-- lit windows -->
  <g fill="#ffeec0" opacity="0.9">
    <rect x="416" y="120" width="3" height="8"/><rect x="416" y="170" width="3" height="8"/><rect x="416" y="225" width="3" height="8"/><rect x="416" y="285" width="3" height="8"/>
    <rect x="250" y="215" width="4" height="7"/><rect x="535" y="235" width="4" height="7"/><rect x="628" y="235" width="4" height="7"/><rect x="640" y="280" width="4" height="7"/>
    <rect x="118" y="220" width="4" height="7"/><rect x="210" y="245" width="4" height="7"/>
  </g>
</svg>
