<svg xmlns="http://www.w3.org/2000/svg" viewBox="0 0 800 340" preserveAspectRatio="xMidYMid slice">
  <defs>
    <linearGradient id="bsky" x1="0" y1="0" x2="0" y2="1">
      <stop offset="0" stop-color="#0a1124"/><stop offset="0.43" stop-color="#33243e"/><stop offset="0.69" stop-color="#75472f"/><stop offset="0.87" stop-color="#c2783a"/><stop offset="1" stop-color="#eea64d"/>
    </linearGradient>
    <radialGradient id="bsun" cx="58%" cy="85%" r="46%">
      <stop offset="0" stop-color="#ffe6a8" stop-opacity="0.95"/><stop offset="0.5" stop-color="#ffb55e" stop-opacity="0.45"/><stop offset="1" stop-color="#ffb55e" stop-opacity="0"/>
    </radialGradient>
    <linearGradient id="bbld" x1="0" y1="0" x2="0" y2="1">
      <stop offset="0" stop-color="#F0D58E"/><stop offset="0.55" stop-color="#b78a3a"/><stop offset="1" stop-color="#2e2110"/>
    </linearGradient>
    <linearGradient id="bbk" x1="0" y1="0" x2="0" y2="1"><stop offset="0" stop-color="#574868"/><stop offset="1" stop-color="#221a32"/></linearGradient>
  </defs>
  <rect width="800" height="340" fill="url(#bsky)"/>
  <ellipse cx="470" cy="300" rx="430" ry="215" fill="url(#bsun)"/>
  <g fill="#fff" opacity="0.55"><circle cx="70" cy="40" r="1.3"/><circle cx="210" cy="64" r="1"/><circle cx="360" cy="32" r="1.2"/><circle cx="560" cy="50" r="1"/><circle cx="700" cy="34" r="1.3"/></g>
  <!-- back skyline + City Hall -->
  <g fill="url(#bbk)" opacity="0.85">
    <rect x="0" y="232" width="800" height="108"/>
    <rect x="60" y="205" width="40" height="135"/><rect x="720" y="200" width="50" height="140"/>
  </g>
  <g fill="url(#bbld)">
    <rect x="470" y="232" width="150" height="108"/>
    <path d="M520 232 Q545 186 570 232 Z"/><rect x="543" y="168" width="4" height="20"/>
    <rect x="480" y="220" width="12" height="120"/><rect x="598" y="220" width="12" height="120"/>
    <rect x="150" y="250" width="40" height="90"/>
  </g>
  <!-- Samson & Goliath gantry cranes (the icons) -->
  <g stroke="#F0D58E" stroke-width="8" fill="none" stroke-linejoin="round" opacity="0.95">
    <path d="M210 300 L210 150 M320 300 L320 150 M180 150 L380 150"/>
    <path d="M210 150 L265 200 L320 150"/>
    <path d="M120 320 L120 110 M250 320 L250 110 M92 110 L350 110"/>
    <path d="M120 110 L185 172 L250 110"/>
  </g>
  <g fill="#ffe9b8" opacity="0.9">
    <rect x="500" y="255" width="5" height="8"/><rect x="535" y="280" width="5" height="8"/><rect x="575" y="255" width="5" height="8"/><rect x="555" y="305" width="5" height="8"/>
    <rect x="70" y="225" width="4" height="7"/><rect x="735" y="220" width="4" height="7"/><rect x="750" y="255" width="4" height="7"/>
  </g>
</svg>
